<mxfile host="app.diagrams.net" modified="2022-11-25T00:55:07.193Z" agent="5.0 (Macintosh; Intel Mac OS X 10_15_7) AppleWebKit/537.36 (KHTML, like Gecko) Chrome/107.0.0.0 Safari/537.36" etag="zXZyADddcVU2CwCKd24n" version="18.1.1" type="github">
  <diagram id="PLWnRggfIW8w5EO7tdIO" name="Page-1">
    <mxGraphModel dx="898" dy="610" grid="1" gridSize="10" guides="1" tooltips="1" connect="1" arrows="1" fold="1" page="1" pageScale="1" pageWidth="827" pageHeight="1169" math="0" shadow="0">
      <root>
        <mxCell id="0" />
        <mxCell id="1" parent="0" />
        <mxCell id="l8vBViZwVbypF5EwimsJ-1" value="" style="shape=hexagon;perimeter=hexagonPerimeter2;whiteSpace=wrap;html=1;fixedSize=1;dashed=1;rotation=90;" vertex="1" parent="1">
          <mxGeometry x="30" y="160" width="50" height="30" as="geometry" />
        </mxCell>
        <mxCell id="l8vBViZwVbypF5EwimsJ-2" value="" style="shape=hexagon;perimeter=hexagonPerimeter2;whiteSpace=wrap;html=1;fixedSize=1;dashed=1;rotation=90;" vertex="1" parent="1">
          <mxGeometry x="30" y="240" width="50" height="30" as="geometry" />
        </mxCell>
        <mxCell id="l8vBViZwVbypF5EwimsJ-3" value="" style="shape=hexagon;perimeter=hexagonPerimeter2;whiteSpace=wrap;html=1;fixedSize=1;dashed=1;rotation=90;" vertex="1" parent="1">
          <mxGeometry x="70" y="240" width="50" height="30" as="geometry" />
        </mxCell>
        <mxCell id="l8vBViZwVbypF5EwimsJ-4" value="" style="shape=hexagon;perimeter=hexagonPerimeter2;whiteSpace=wrap;html=1;fixedSize=1;dashed=1;rotation=90;" vertex="1" parent="1">
          <mxGeometry x="70" y="160" width="50" height="30" as="geometry" />
        </mxCell>
        <mxCell id="l8vBViZwVbypF5EwimsJ-5" value="" style="shape=hexagon;perimeter=hexagonPerimeter2;whiteSpace=wrap;html=1;fixedSize=1;dashed=1;rotation=90;" vertex="1" parent="1">
          <mxGeometry x="90" y="280" width="50" height="30" as="geometry" />
        </mxCell>
        <mxCell id="l8vBViZwVbypF5EwimsJ-6" value="" style="shape=hexagon;perimeter=hexagonPerimeter2;whiteSpace=wrap;html=1;fixedSize=1;dashed=1;rotation=90;" vertex="1" parent="1">
          <mxGeometry x="50" y="200" width="50" height="30" as="geometry" />
        </mxCell>
        <mxCell id="l8vBViZwVbypF5EwimsJ-7" value="" style="shape=hexagon;perimeter=hexagonPerimeter2;whiteSpace=wrap;html=1;fixedSize=1;dashed=1;rotation=90;" vertex="1" parent="1">
          <mxGeometry x="10" y="200" width="50" height="30" as="geometry" />
        </mxCell>
        <mxCell id="l8vBViZwVbypF5EwimsJ-8" value="" style="shape=hexagon;perimeter=hexagonPerimeter2;whiteSpace=wrap;html=1;fixedSize=1;dashed=1;rotation=90;" vertex="1" parent="1">
          <mxGeometry x="130" y="200" width="50" height="30" as="geometry" />
        </mxCell>
        <mxCell id="l8vBViZwVbypF5EwimsJ-9" value="" style="shape=hexagon;perimeter=hexagonPerimeter2;whiteSpace=wrap;html=1;fixedSize=1;dashed=1;rotation=90;" vertex="1" parent="1">
          <mxGeometry x="90" y="200" width="50" height="30" as="geometry" />
        </mxCell>
        <mxCell id="l8vBViZwVbypF5EwimsJ-10" value="" style="shape=hexagon;perimeter=hexagonPerimeter2;whiteSpace=wrap;html=1;fixedSize=1;dashed=1;rotation=90;" vertex="1" parent="1">
          <mxGeometry x="110" y="160" width="50" height="30" as="geometry" />
        </mxCell>
        <mxCell id="l8vBViZwVbypF5EwimsJ-11" value="" style="shape=hexagon;perimeter=hexagonPerimeter2;whiteSpace=wrap;html=1;fixedSize=1;dashed=1;rotation=90;" vertex="1" parent="1">
          <mxGeometry x="110" y="240" width="50" height="30" as="geometry" />
        </mxCell>
        <mxCell id="l8vBViZwVbypF5EwimsJ-12" value="" style="shape=hexagon;perimeter=hexagonPerimeter2;whiteSpace=wrap;html=1;fixedSize=1;dashed=1;rotation=90;size=100;" vertex="1" parent="1">
          <mxGeometry x="50" y="280" width="50" height="30" as="geometry" />
        </mxCell>
        <mxCell id="l8vBViZwVbypF5EwimsJ-16" value="" style="shape=hexagon;perimeter=hexagonPerimeter2;whiteSpace=wrap;html=1;fixedSize=1;dashed=1;rotation=90;" vertex="1" parent="1">
          <mxGeometry x="90" y="120" width="50" height="30" as="geometry" />
        </mxCell>
        <mxCell id="l8vBViZwVbypF5EwimsJ-17" value="" style="shape=hexagon;perimeter=hexagonPerimeter2;whiteSpace=wrap;html=1;fixedSize=1;dashed=1;rotation=90;" vertex="1" parent="1">
          <mxGeometry x="50" y="120" width="50" height="30" as="geometry" />
        </mxCell>
        <mxCell id="l8vBViZwVbypF5EwimsJ-18" value="" style="shape=hexagon;perimeter=hexagonPerimeter2;whiteSpace=wrap;html=1;fixedSize=1;dashed=1;rotation=90;" vertex="1" parent="1">
          <mxGeometry x="230" y="160" width="50" height="30" as="geometry" />
        </mxCell>
        <mxCell id="l8vBViZwVbypF5EwimsJ-19" value="" style="shape=hexagon;perimeter=hexagonPerimeter2;whiteSpace=wrap;html=1;fixedSize=1;dashed=1;rotation=90;" vertex="1" parent="1">
          <mxGeometry x="230" y="240" width="50" height="30" as="geometry" />
        </mxCell>
        <mxCell id="l8vBViZwVbypF5EwimsJ-20" value="" style="shape=hexagon;perimeter=hexagonPerimeter2;whiteSpace=wrap;html=1;fixedSize=1;dashed=1;rotation=90;" vertex="1" parent="1">
          <mxGeometry x="270" y="240" width="50" height="30" as="geometry" />
        </mxCell>
        <mxCell id="l8vBViZwVbypF5EwimsJ-21" value="" style="shape=hexagon;perimeter=hexagonPerimeter2;whiteSpace=wrap;html=1;fixedSize=1;dashed=1;rotation=90;" vertex="1" parent="1">
          <mxGeometry x="270" y="160" width="50" height="30" as="geometry" />
        </mxCell>
        <mxCell id="l8vBViZwVbypF5EwimsJ-22" value="" style="shape=hexagon;perimeter=hexagonPerimeter2;whiteSpace=wrap;html=1;fixedSize=1;dashed=1;rotation=90;" vertex="1" parent="1">
          <mxGeometry x="290" y="280" width="50" height="30" as="geometry" />
        </mxCell>
        <mxCell id="l8vBViZwVbypF5EwimsJ-23" value="" style="shape=hexagon;perimeter=hexagonPerimeter2;whiteSpace=wrap;html=1;fixedSize=1;dashed=1;rotation=90;" vertex="1" parent="1">
          <mxGeometry x="250" y="200" width="50" height="30" as="geometry" />
        </mxCell>
        <mxCell id="l8vBViZwVbypF5EwimsJ-24" value="" style="shape=hexagon;perimeter=hexagonPerimeter2;whiteSpace=wrap;html=1;fixedSize=1;dashed=1;rotation=90;" vertex="1" parent="1">
          <mxGeometry x="210" y="200" width="50" height="30" as="geometry" />
        </mxCell>
        <mxCell id="l8vBViZwVbypF5EwimsJ-25" value="" style="shape=hexagon;perimeter=hexagonPerimeter2;whiteSpace=wrap;html=1;fixedSize=1;dashed=1;rotation=90;" vertex="1" parent="1">
          <mxGeometry x="330" y="200" width="50" height="30" as="geometry" />
        </mxCell>
        <mxCell id="l8vBViZwVbypF5EwimsJ-26" value="" style="shape=hexagon;perimeter=hexagonPerimeter2;whiteSpace=wrap;html=1;fixedSize=1;dashed=1;rotation=90;" vertex="1" parent="1">
          <mxGeometry x="290" y="200" width="50" height="30" as="geometry" />
        </mxCell>
        <mxCell id="l8vBViZwVbypF5EwimsJ-27" value="" style="shape=hexagon;perimeter=hexagonPerimeter2;whiteSpace=wrap;html=1;fixedSize=1;dashed=1;rotation=90;" vertex="1" parent="1">
          <mxGeometry x="310" y="160" width="50" height="30" as="geometry" />
        </mxCell>
        <mxCell id="l8vBViZwVbypF5EwimsJ-28" value="" style="shape=hexagon;perimeter=hexagonPerimeter2;whiteSpace=wrap;html=1;fixedSize=1;dashed=1;rotation=90;" vertex="1" parent="1">
          <mxGeometry x="310" y="240" width="50" height="30" as="geometry" />
        </mxCell>
        <mxCell id="l8vBViZwVbypF5EwimsJ-29" value="" style="shape=hexagon;perimeter=hexagonPerimeter2;whiteSpace=wrap;html=1;fixedSize=1;dashed=1;rotation=90;size=100;" vertex="1" parent="1">
          <mxGeometry x="250" y="280" width="50" height="30" as="geometry" />
        </mxCell>
        <mxCell id="l8vBViZwVbypF5EwimsJ-30" value="" style="shape=hexagon;perimeter=hexagonPerimeter2;whiteSpace=wrap;html=1;fixedSize=1;dashed=1;rotation=90;" vertex="1" parent="1">
          <mxGeometry x="290" y="120" width="50" height="30" as="geometry" />
        </mxCell>
        <mxCell id="l8vBViZwVbypF5EwimsJ-31" value="" style="shape=hexagon;perimeter=hexagonPerimeter2;whiteSpace=wrap;html=1;fixedSize=1;dashed=1;rotation=90;" vertex="1" parent="1">
          <mxGeometry x="250" y="120" width="50" height="30" as="geometry" />
        </mxCell>
        <mxCell id="l8vBViZwVbypF5EwimsJ-32" value="" style="shape=hexagon;perimeter=hexagonPerimeter2;whiteSpace=wrap;html=1;fixedSize=1;dashed=1;rotation=90;" vertex="1" parent="1">
          <mxGeometry x="420" y="160" width="50" height="30" as="geometry" />
        </mxCell>
        <mxCell id="l8vBViZwVbypF5EwimsJ-33" value="" style="shape=hexagon;perimeter=hexagonPerimeter2;whiteSpace=wrap;html=1;fixedSize=1;dashed=1;rotation=90;" vertex="1" parent="1">
          <mxGeometry x="420" y="240" width="50" height="30" as="geometry" />
        </mxCell>
        <mxCell id="l8vBViZwVbypF5EwimsJ-34" value="" style="shape=hexagon;perimeter=hexagonPerimeter2;whiteSpace=wrap;html=1;fixedSize=1;dashed=1;rotation=90;" vertex="1" parent="1">
          <mxGeometry x="460" y="240" width="50" height="30" as="geometry" />
        </mxCell>
        <mxCell id="l8vBViZwVbypF5EwimsJ-35" value="" style="shape=hexagon;perimeter=hexagonPerimeter2;whiteSpace=wrap;html=1;fixedSize=1;dashed=1;rotation=90;" vertex="1" parent="1">
          <mxGeometry x="460" y="160" width="50" height="30" as="geometry" />
        </mxCell>
        <mxCell id="l8vBViZwVbypF5EwimsJ-36" value="" style="shape=hexagon;perimeter=hexagonPerimeter2;whiteSpace=wrap;html=1;fixedSize=1;dashed=1;rotation=90;" vertex="1" parent="1">
          <mxGeometry x="480" y="280" width="50" height="30" as="geometry" />
        </mxCell>
        <mxCell id="l8vBViZwVbypF5EwimsJ-37" value="" style="shape=hexagon;perimeter=hexagonPerimeter2;whiteSpace=wrap;html=1;fixedSize=1;dashed=1;rotation=90;" vertex="1" parent="1">
          <mxGeometry x="440" y="200" width="50" height="30" as="geometry" />
        </mxCell>
        <mxCell id="l8vBViZwVbypF5EwimsJ-38" value="" style="shape=hexagon;perimeter=hexagonPerimeter2;whiteSpace=wrap;html=1;fixedSize=1;dashed=1;rotation=90;" vertex="1" parent="1">
          <mxGeometry x="400" y="200" width="50" height="30" as="geometry" />
        </mxCell>
        <mxCell id="l8vBViZwVbypF5EwimsJ-39" value="" style="shape=hexagon;perimeter=hexagonPerimeter2;whiteSpace=wrap;html=1;fixedSize=1;dashed=1;rotation=90;" vertex="1" parent="1">
          <mxGeometry x="520" y="200" width="50" height="30" as="geometry" />
        </mxCell>
        <mxCell id="l8vBViZwVbypF5EwimsJ-40" value="" style="shape=hexagon;perimeter=hexagonPerimeter2;whiteSpace=wrap;html=1;fixedSize=1;dashed=1;rotation=90;" vertex="1" parent="1">
          <mxGeometry x="480" y="200" width="50" height="30" as="geometry" />
        </mxCell>
        <mxCell id="l8vBViZwVbypF5EwimsJ-41" value="" style="shape=hexagon;perimeter=hexagonPerimeter2;whiteSpace=wrap;html=1;fixedSize=1;dashed=1;rotation=90;" vertex="1" parent="1">
          <mxGeometry x="500" y="160" width="50" height="30" as="geometry" />
        </mxCell>
        <mxCell id="l8vBViZwVbypF5EwimsJ-42" value="" style="shape=hexagon;perimeter=hexagonPerimeter2;whiteSpace=wrap;html=1;fixedSize=1;dashed=1;rotation=90;" vertex="1" parent="1">
          <mxGeometry x="500" y="240" width="50" height="30" as="geometry" />
        </mxCell>
        <mxCell id="l8vBViZwVbypF5EwimsJ-43" value="" style="shape=hexagon;perimeter=hexagonPerimeter2;whiteSpace=wrap;html=1;fixedSize=1;dashed=1;rotation=90;size=100;" vertex="1" parent="1">
          <mxGeometry x="440" y="280" width="50" height="30" as="geometry" />
        </mxCell>
        <mxCell id="l8vBViZwVbypF5EwimsJ-44" value="" style="shape=hexagon;perimeter=hexagonPerimeter2;whiteSpace=wrap;html=1;fixedSize=1;dashed=1;rotation=90;" vertex="1" parent="1">
          <mxGeometry x="480" y="120" width="50" height="30" as="geometry" />
        </mxCell>
        <mxCell id="l8vBViZwVbypF5EwimsJ-45" value="" style="shape=hexagon;perimeter=hexagonPerimeter2;whiteSpace=wrap;html=1;fixedSize=1;dashed=1;rotation=90;" vertex="1" parent="1">
          <mxGeometry x="440" y="120" width="50" height="30" as="geometry" />
        </mxCell>
        <mxCell id="l8vBViZwVbypF5EwimsJ-46" value="block header" style="swimlane;fontStyle=0;childLayout=stackLayout;horizontal=1;startSize=10;horizontalStack=0;resizeParent=1;resizeParentMax=0;resizeLast=0;collapsible=1;marginBottom=0;fontSize=6;" vertex="1" parent="1">
          <mxGeometry x="60" y="200" width="30" height="40" as="geometry" />
        </mxCell>
        <mxCell id="l8vBViZwVbypF5EwimsJ-47" value="ts00" style="text;strokeColor=none;fillColor=none;align=left;verticalAlign=middle;spacingLeft=4;spacingRight=4;overflow=hidden;points=[[0,0.5],[1,0.5]];portConstraint=eastwest;rotatable=0;dashed=1;fontSize=6;" vertex="1" parent="l8vBViZwVbypF5EwimsJ-46">
          <mxGeometry y="10" width="30" height="10" as="geometry" />
        </mxCell>
        <mxCell id="l8vBViZwVbypF5EwimsJ-48" value="ts01" style="text;strokeColor=none;fillColor=none;align=left;verticalAlign=middle;spacingLeft=4;spacingRight=4;overflow=hidden;points=[[0,0.5],[1,0.5]];portConstraint=eastwest;rotatable=0;dashed=1;fontSize=6;" vertex="1" parent="l8vBViZwVbypF5EwimsJ-46">
          <mxGeometry y="20" width="30" height="10" as="geometry" />
        </mxCell>
        <mxCell id="l8vBViZwVbypF5EwimsJ-49" value="ts02" style="text;strokeColor=none;fillColor=none;align=left;verticalAlign=middle;spacingLeft=4;spacingRight=4;overflow=hidden;points=[[0,0.5],[1,0.5]];portConstraint=eastwest;rotatable=0;dashed=1;fontSize=6;" vertex="1" parent="l8vBViZwVbypF5EwimsJ-46">
          <mxGeometry y="30" width="30" height="10" as="geometry" />
        </mxCell>
        <mxCell id="l8vBViZwVbypF5EwimsJ-50" value="block header" style="swimlane;fontStyle=0;childLayout=stackLayout;horizontal=1;startSize=10;horizontalStack=0;resizeParent=1;resizeParentMax=0;resizeLast=0;collapsible=1;marginBottom=0;fontSize=6;" vertex="1" parent="1">
          <mxGeometry x="300" y="110" width="30" height="40" as="geometry" />
        </mxCell>
        <mxCell id="l8vBViZwVbypF5EwimsJ-51" value="ts00" style="text;strokeColor=none;fillColor=none;align=left;verticalAlign=middle;spacingLeft=4;spacingRight=4;overflow=hidden;points=[[0,0.5],[1,0.5]];portConstraint=eastwest;rotatable=0;dashed=1;fontSize=6;" vertex="1" parent="l8vBViZwVbypF5EwimsJ-50">
          <mxGeometry y="10" width="30" height="10" as="geometry" />
        </mxCell>
        <mxCell id="l8vBViZwVbypF5EwimsJ-52" value="ts01" style="text;strokeColor=none;fillColor=none;align=left;verticalAlign=middle;spacingLeft=4;spacingRight=4;overflow=hidden;points=[[0,0.5],[1,0.5]];portConstraint=eastwest;rotatable=0;dashed=1;fontSize=6;" vertex="1" parent="l8vBViZwVbypF5EwimsJ-50">
          <mxGeometry y="20" width="30" height="10" as="geometry" />
        </mxCell>
        <mxCell id="l8vBViZwVbypF5EwimsJ-53" value="ts02" style="text;strokeColor=none;fillColor=none;align=left;verticalAlign=middle;spacingLeft=4;spacingRight=4;overflow=hidden;points=[[0,0.5],[1,0.5]];portConstraint=eastwest;rotatable=0;dashed=1;fontSize=6;" vertex="1" parent="l8vBViZwVbypF5EwimsJ-50">
          <mxGeometry y="30" width="30" height="10" as="geometry" />
        </mxCell>
        <mxCell id="l8vBViZwVbypF5EwimsJ-54" value="block header" style="swimlane;fontStyle=0;childLayout=stackLayout;horizontal=1;startSize=10;horizontalStack=0;resizeParent=1;resizeParentMax=0;resizeLast=0;collapsible=1;marginBottom=0;fontSize=6;" vertex="1" parent="1">
          <mxGeometry x="430" y="240" width="30" height="40" as="geometry" />
        </mxCell>
        <mxCell id="l8vBViZwVbypF5EwimsJ-55" value="ts00" style="text;strokeColor=none;fillColor=none;align=left;verticalAlign=middle;spacingLeft=4;spacingRight=4;overflow=hidden;points=[[0,0.5],[1,0.5]];portConstraint=eastwest;rotatable=0;dashed=1;fontSize=6;" vertex="1" parent="l8vBViZwVbypF5EwimsJ-54">
          <mxGeometry y="10" width="30" height="10" as="geometry" />
        </mxCell>
        <mxCell id="l8vBViZwVbypF5EwimsJ-56" value="ts01" style="text;strokeColor=none;fillColor=none;align=left;verticalAlign=middle;spacingLeft=4;spacingRight=4;overflow=hidden;points=[[0,0.5],[1,0.5]];portConstraint=eastwest;rotatable=0;dashed=1;fontSize=6;" vertex="1" parent="l8vBViZwVbypF5EwimsJ-54">
          <mxGeometry y="20" width="30" height="10" as="geometry" />
        </mxCell>
        <mxCell id="l8vBViZwVbypF5EwimsJ-57" value="ts02" style="text;strokeColor=none;fillColor=none;align=left;verticalAlign=middle;spacingLeft=4;spacingRight=4;overflow=hidden;points=[[0,0.5],[1,0.5]];portConstraint=eastwest;rotatable=0;dashed=1;fontSize=6;" vertex="1" parent="l8vBViZwVbypF5EwimsJ-54">
          <mxGeometry y="30" width="30" height="10" as="geometry" />
        </mxCell>
        <mxCell id="l8vBViZwVbypF5EwimsJ-58" value="" style="endArrow=classic;html=1;rounded=0;fontSize=6;exitX=0;exitY=0.5;exitDx=0;exitDy=0;entryX=1;entryY=0.5;entryDx=0;entryDy=0;" edge="1" parent="1" source="l8vBViZwVbypF5EwimsJ-52" target="l8vBViZwVbypF5EwimsJ-48">
          <mxGeometry width="50" height="50" relative="1" as="geometry">
            <mxPoint x="300" y="240" as="sourcePoint" />
            <mxPoint x="170" y="40" as="targetPoint" />
          </mxGeometry>
        </mxCell>
        <mxCell id="l8vBViZwVbypF5EwimsJ-59" value="" style="endArrow=classic;html=1;rounded=0;fontSize=6;entryX=1;entryY=0.5;entryDx=0;entryDy=0;exitX=0;exitY=0.5;exitDx=0;exitDy=0;" edge="1" parent="1" source="l8vBViZwVbypF5EwimsJ-56" target="l8vBViZwVbypF5EwimsJ-52">
          <mxGeometry width="50" height="50" relative="1" as="geometry">
            <mxPoint x="300" y="240" as="sourcePoint" />
            <mxPoint x="350" y="190" as="targetPoint" />
          </mxGeometry>
        </mxCell>
        <mxCell id="l8vBViZwVbypF5EwimsJ-60" value="" style="ellipse;whiteSpace=wrap;html=1;fontSize=6;" vertex="1" parent="1">
          <mxGeometry x="170" y="920" width="570" height="130" as="geometry" />
        </mxCell>
        <mxCell id="l8vBViZwVbypF5EwimsJ-72" value="Ckb" style="text;html=1;strokeColor=none;fillColor=none;align=center;verticalAlign=middle;whiteSpace=wrap;rounded=0;fontSize=6;" vertex="1" parent="1">
          <mxGeometry x="225" y="960" width="60" height="30" as="geometry" />
        </mxCell>
        <mxCell id="l8vBViZwVbypF5EwimsJ-73" value="" style="curved=1;endArrow=classic;html=1;rounded=0;fontSize=6;" edge="1" parent="1">
          <mxGeometry width="50" height="50" relative="1" as="geometry">
            <mxPoint x="620" y="970" as="sourcePoint" />
            <mxPoint x="520" y="880" as="targetPoint" />
            <Array as="points">
              <mxPoint x="620" y="970" />
              <mxPoint x="580" y="960" />
              <mxPoint x="550" y="930" />
            </Array>
          </mxGeometry>
        </mxCell>
        <mxCell id="l8vBViZwVbypF5EwimsJ-75" value="" style="ellipse;whiteSpace=wrap;html=1;fontSize=6;" vertex="1" parent="1">
          <mxGeometry x="370" y="790" width="370" height="90" as="geometry" />
        </mxCell>
        <mxCell id="l8vBViZwVbypF5EwimsJ-79" value="" style="shape=hexagon;perimeter=hexagonPerimeter2;whiteSpace=wrap;html=1;fixedSize=1;fontSize=6;" vertex="1" parent="1">
          <mxGeometry x="540" y="800" width="70" height="30" as="geometry" />
        </mxCell>
        <mxCell id="l8vBViZwVbypF5EwimsJ-80" value="Node" style="text;html=1;strokeColor=none;fillColor=none;align=center;verticalAlign=middle;whiteSpace=wrap;rounded=0;fontSize=6;" vertex="1" parent="1">
          <mxGeometry x="545" y="800" width="60" height="30" as="geometry" />
        </mxCell>
        <mxCell id="l8vBViZwVbypF5EwimsJ-82" value="" style="shape=hexagon;perimeter=hexagonPerimeter2;whiteSpace=wrap;html=1;fixedSize=1;fontSize=6;" vertex="1" parent="1">
          <mxGeometry x="540" y="800" width="70" height="30" as="geometry" />
        </mxCell>
        <mxCell id="l8vBViZwVbypF5EwimsJ-83" value="Node" style="text;html=1;strokeColor=none;fillColor=none;align=center;verticalAlign=middle;whiteSpace=wrap;rounded=0;fontSize=6;" vertex="1" parent="1">
          <mxGeometry x="545" y="800" width="60" height="30" as="geometry" />
        </mxCell>
        <mxCell id="l8vBViZwVbypF5EwimsJ-84" value="" style="shape=hexagon;perimeter=hexagonPerimeter2;whiteSpace=wrap;html=1;fixedSize=1;fontSize=6;" vertex="1" parent="1">
          <mxGeometry x="540" y="840" width="70" height="30" as="geometry" />
        </mxCell>
        <mxCell id="l8vBViZwVbypF5EwimsJ-85" value="Node" style="text;html=1;strokeColor=none;fillColor=none;align=center;verticalAlign=middle;whiteSpace=wrap;rounded=0;fontSize=6;" vertex="1" parent="1">
          <mxGeometry x="545" y="840" width="60" height="30" as="geometry" />
        </mxCell>
        <mxCell id="l8vBViZwVbypF5EwimsJ-86" value="" style="shape=hexagon;perimeter=hexagonPerimeter2;whiteSpace=wrap;html=1;fixedSize=1;fontSize=6;" vertex="1" parent="1">
          <mxGeometry x="450" y="840" width="70" height="30" as="geometry" />
        </mxCell>
        <mxCell id="l8vBViZwVbypF5EwimsJ-87" value="Node" style="text;html=1;strokeColor=none;fillColor=none;align=center;verticalAlign=middle;whiteSpace=wrap;rounded=0;fontSize=6;" vertex="1" parent="1">
          <mxGeometry x="455" y="840" width="60" height="30" as="geometry" />
        </mxCell>
        <mxCell id="l8vBViZwVbypF5EwimsJ-88" value="" style="shape=hexagon;perimeter=hexagonPerimeter2;whiteSpace=wrap;html=1;fixedSize=1;fontSize=6;" vertex="1" parent="1">
          <mxGeometry x="450" y="800" width="70" height="30" as="geometry" />
        </mxCell>
        <mxCell id="l8vBViZwVbypF5EwimsJ-89" value="Node" style="text;html=1;strokeColor=none;fillColor=none;align=center;verticalAlign=middle;whiteSpace=wrap;rounded=0;fontSize=6;" vertex="1" parent="1">
          <mxGeometry x="455" y="800" width="60" height="30" as="geometry" />
        </mxCell>
        <mxCell id="l8vBViZwVbypF5EwimsJ-90" value="L2" style="text;html=1;strokeColor=none;fillColor=none;align=center;verticalAlign=middle;whiteSpace=wrap;rounded=0;fontSize=6;" vertex="1" parent="1">
          <mxGeometry x="384" y="820" width="60" height="30" as="geometry" />
        </mxCell>
        <mxCell id="l8vBViZwVbypF5EwimsJ-91" value="" style="curved=1;endArrow=classic;html=1;rounded=0;fontSize=6;entryX=0.5;entryY=1;entryDx=0;entryDy=0;" edge="1" parent="1" target="l8vBViZwVbypF5EwimsJ-113">
          <mxGeometry width="50" height="50" relative="1" as="geometry">
            <mxPoint x="645" y="830" as="sourcePoint" />
            <mxPoint x="300" y="640" as="targetPoint" />
            <Array as="points">
              <mxPoint x="645" y="830" />
              <mxPoint x="605" y="820" />
              <mxPoint x="380" y="760" />
              <mxPoint x="280" y="700" />
            </Array>
          </mxGeometry>
        </mxCell>
        <mxCell id="l8vBViZwVbypF5EwimsJ-92" value="" style="endArrow=classic;startArrow=classic;html=1;rounded=0;fontSize=6;" edge="1" parent="1" target="l8vBViZwVbypF5EwimsJ-93">
          <mxGeometry width="50" height="50" relative="1" as="geometry">
            <mxPoint x="460" y="810" as="sourcePoint" />
            <mxPoint x="370" y="780" as="targetPoint" />
          </mxGeometry>
        </mxCell>
        <mxCell id="l8vBViZwVbypF5EwimsJ-93" value="" style="shape=cylinder3;whiteSpace=wrap;html=1;boundedLbl=1;backgroundOutline=1;size=15;fontSize=6;" vertex="1" parent="1">
          <mxGeometry x="295" y="760" width="70" height="40" as="geometry" />
        </mxCell>
        <mxCell id="l8vBViZwVbypF5EwimsJ-96" value="smart contract" style="text;html=1;strokeColor=none;fillColor=none;align=center;verticalAlign=middle;whiteSpace=wrap;rounded=0;fontSize=11;" vertex="1" parent="1">
          <mxGeometry x="300" y="760" width="60" height="30" as="geometry" />
        </mxCell>
        <mxCell id="l8vBViZwVbypF5EwimsJ-97" value="" style="ellipse;whiteSpace=wrap;html=1;fontSize=11;" vertex="1" parent="1">
          <mxGeometry x="164" y="370" width="220" height="70" as="geometry" />
        </mxCell>
        <mxCell id="l8vBViZwVbypF5EwimsJ-98" value="" style="shape=hexagon;perimeter=hexagonPerimeter2;whiteSpace=wrap;html=1;fixedSize=1;fontSize=11;" vertex="1" parent="1">
          <mxGeometry x="720" y="430" width="65" height="20" as="geometry" />
        </mxCell>
        <mxCell id="l8vBViZwVbypF5EwimsJ-99" value="Node" style="text;html=1;strokeColor=none;fillColor=none;align=center;verticalAlign=middle;whiteSpace=wrap;rounded=0;fontSize=11;" vertex="1" parent="1">
          <mxGeometry x="722.5" y="430" width="62.5" height="20" as="geometry" />
        </mxCell>
        <mxCell id="l8vBViZwVbypF5EwimsJ-102" value="" style="shape=hexagon;perimeter=hexagonPerimeter2;whiteSpace=wrap;html=1;fixedSize=1;fontSize=11;" vertex="1" parent="1">
          <mxGeometry x="299" y="380" width="65" height="20" as="geometry" />
        </mxCell>
        <mxCell id="l8vBViZwVbypF5EwimsJ-103" value="Node" style="text;html=1;strokeColor=none;fillColor=none;align=center;verticalAlign=middle;whiteSpace=wrap;rounded=0;fontSize=11;" vertex="1" parent="1">
          <mxGeometry x="301.5" y="380" width="62.5" height="20" as="geometry" />
        </mxCell>
        <mxCell id="l8vBViZwVbypF5EwimsJ-104" value="" style="shape=hexagon;perimeter=hexagonPerimeter2;whiteSpace=wrap;html=1;fixedSize=1;fontSize=11;" vertex="1" parent="1">
          <mxGeometry x="301.5" y="405" width="65" height="20" as="geometry" />
        </mxCell>
        <mxCell id="l8vBViZwVbypF5EwimsJ-105" value="Node" style="text;html=1;strokeColor=none;fillColor=none;align=center;verticalAlign=middle;whiteSpace=wrap;rounded=0;fontSize=11;" vertex="1" parent="1">
          <mxGeometry x="304" y="405" width="62.5" height="20" as="geometry" />
        </mxCell>
        <mxCell id="l8vBViZwVbypF5EwimsJ-106" value="" style="shape=hexagon;perimeter=hexagonPerimeter2;whiteSpace=wrap;html=1;fixedSize=1;fontSize=11;" vertex="1" parent="1">
          <mxGeometry x="229" y="380" width="65" height="20" as="geometry" />
        </mxCell>
        <mxCell id="l8vBViZwVbypF5EwimsJ-107" value="Node" style="text;html=1;strokeColor=none;fillColor=none;align=center;verticalAlign=middle;whiteSpace=wrap;rounded=0;fontSize=11;" vertex="1" parent="1">
          <mxGeometry x="231.5" y="380" width="62.5" height="20" as="geometry" />
        </mxCell>
        <mxCell id="l8vBViZwVbypF5EwimsJ-108" value="" style="shape=hexagon;perimeter=hexagonPerimeter2;whiteSpace=wrap;html=1;fixedSize=1;fontSize=11;" vertex="1" parent="1">
          <mxGeometry x="231.5" y="405" width="65" height="20" as="geometry" />
        </mxCell>
        <mxCell id="l8vBViZwVbypF5EwimsJ-109" value="Node" style="text;html=1;strokeColor=none;fillColor=none;align=center;verticalAlign=middle;whiteSpace=wrap;rounded=0;fontSize=11;" vertex="1" parent="1">
          <mxGeometry x="234" y="405" width="62.5" height="20" as="geometry" />
        </mxCell>
        <mxCell id="l8vBViZwVbypF5EwimsJ-110" value="App Chain" style="text;html=1;strokeColor=none;fillColor=none;align=center;verticalAlign=middle;whiteSpace=wrap;rounded=0;fontSize=11;" vertex="1" parent="1">
          <mxGeometry x="171.5" y="390" width="60" height="30" as="geometry" />
        </mxCell>
        <mxCell id="l8vBViZwVbypF5EwimsJ-112" value="" style="curved=1;endArrow=classic;html=1;rounded=0;fontSize=6;entryX=0.5;entryY=1;entryDx=0;entryDy=0;" edge="1" parent="1" target="l8vBViZwVbypF5EwimsJ-124">
          <mxGeometry width="50" height="50" relative="1" as="geometry">
            <mxPoint x="645" y="830" as="sourcePoint" />
            <mxPoint x="480" y="640" as="targetPoint" />
            <Array as="points">
              <mxPoint x="645" y="830" />
              <mxPoint x="635" y="830" />
              <mxPoint x="605" y="820" />
              <mxPoint x="560" y="790" />
              <mxPoint x="480" y="730" />
            </Array>
          </mxGeometry>
        </mxCell>
        <mxCell id="l8vBViZwVbypF5EwimsJ-113" value="" style="ellipse;whiteSpace=wrap;html=1;fontSize=11;" vertex="1" parent="1">
          <mxGeometry x="81.5" y="570" width="220" height="70" as="geometry" />
        </mxCell>
        <mxCell id="l8vBViZwVbypF5EwimsJ-114" value="" style="shape=hexagon;perimeter=hexagonPerimeter2;whiteSpace=wrap;html=1;fixedSize=1;fontSize=11;" vertex="1" parent="1">
          <mxGeometry x="216.5" y="580" width="65" height="20" as="geometry" />
        </mxCell>
        <mxCell id="l8vBViZwVbypF5EwimsJ-115" value="Node" style="text;html=1;strokeColor=none;fillColor=none;align=center;verticalAlign=middle;whiteSpace=wrap;rounded=0;fontSize=11;" vertex="1" parent="1">
          <mxGeometry x="219" y="580" width="62.5" height="20" as="geometry" />
        </mxCell>
        <mxCell id="l8vBViZwVbypF5EwimsJ-116" value="" style="shape=hexagon;perimeter=hexagonPerimeter2;whiteSpace=wrap;html=1;fixedSize=1;fontSize=11;" vertex="1" parent="1">
          <mxGeometry x="219" y="605" width="65" height="20" as="geometry" />
        </mxCell>
        <mxCell id="l8vBViZwVbypF5EwimsJ-117" value="Node" style="text;html=1;strokeColor=none;fillColor=none;align=center;verticalAlign=middle;whiteSpace=wrap;rounded=0;fontSize=11;" vertex="1" parent="1">
          <mxGeometry x="221.5" y="605" width="62.5" height="20" as="geometry" />
        </mxCell>
        <mxCell id="l8vBViZwVbypF5EwimsJ-118" value="" style="shape=hexagon;perimeter=hexagonPerimeter2;whiteSpace=wrap;html=1;fixedSize=1;fontSize=11;" vertex="1" parent="1">
          <mxGeometry x="146.5" y="580" width="65" height="20" as="geometry" />
        </mxCell>
        <mxCell id="l8vBViZwVbypF5EwimsJ-119" value="Node" style="text;html=1;strokeColor=none;fillColor=none;align=center;verticalAlign=middle;whiteSpace=wrap;rounded=0;fontSize=11;" vertex="1" parent="1">
          <mxGeometry x="149" y="580" width="62.5" height="20" as="geometry" />
        </mxCell>
        <mxCell id="l8vBViZwVbypF5EwimsJ-120" value="" style="shape=hexagon;perimeter=hexagonPerimeter2;whiteSpace=wrap;html=1;fixedSize=1;fontSize=11;" vertex="1" parent="1">
          <mxGeometry x="149" y="605" width="65" height="20" as="geometry" />
        </mxCell>
        <mxCell id="l8vBViZwVbypF5EwimsJ-121" value="Node" style="text;html=1;strokeColor=none;fillColor=none;align=center;verticalAlign=middle;whiteSpace=wrap;rounded=0;fontSize=11;" vertex="1" parent="1">
          <mxGeometry x="151.5" y="605" width="62.5" height="20" as="geometry" />
        </mxCell>
        <mxCell id="l8vBViZwVbypF5EwimsJ-122" value="App Chain0" style="text;html=1;strokeColor=none;fillColor=none;align=center;verticalAlign=middle;whiteSpace=wrap;rounded=0;fontSize=11;" vertex="1" parent="1">
          <mxGeometry x="86.5" y="590" width="60" height="30" as="geometry" />
        </mxCell>
        <mxCell id="l8vBViZwVbypF5EwimsJ-123" value="" style="endArrow=classic;html=1;rounded=0;fontSize=11;" edge="1" parent="1">
          <mxGeometry width="50" height="50" relative="1" as="geometry">
            <mxPoint x="640" y="830" as="sourcePoint" />
            <mxPoint x="640" y="640" as="targetPoint" />
          </mxGeometry>
        </mxCell>
        <mxCell id="l8vBViZwVbypF5EwimsJ-124" value="" style="ellipse;whiteSpace=wrap;html=1;fontSize=11;" vertex="1" parent="1">
          <mxGeometry x="320" y="570" width="220" height="70" as="geometry" />
        </mxCell>
        <mxCell id="l8vBViZwVbypF5EwimsJ-125" value="" style="shape=hexagon;perimeter=hexagonPerimeter2;whiteSpace=wrap;html=1;fixedSize=1;fontSize=11;" vertex="1" parent="1">
          <mxGeometry x="455" y="580" width="65" height="20" as="geometry" />
        </mxCell>
        <mxCell id="l8vBViZwVbypF5EwimsJ-126" value="Node" style="text;html=1;strokeColor=none;fillColor=none;align=center;verticalAlign=middle;whiteSpace=wrap;rounded=0;fontSize=11;" vertex="1" parent="1">
          <mxGeometry x="457.5" y="580" width="62.5" height="20" as="geometry" />
        </mxCell>
        <mxCell id="l8vBViZwVbypF5EwimsJ-127" value="" style="shape=hexagon;perimeter=hexagonPerimeter2;whiteSpace=wrap;html=1;fixedSize=1;fontSize=11;" vertex="1" parent="1">
          <mxGeometry x="457.5" y="605" width="65" height="20" as="geometry" />
        </mxCell>
        <mxCell id="l8vBViZwVbypF5EwimsJ-128" value="Node" style="text;html=1;strokeColor=none;fillColor=none;align=center;verticalAlign=middle;whiteSpace=wrap;rounded=0;fontSize=11;" vertex="1" parent="1">
          <mxGeometry x="460" y="605" width="62.5" height="20" as="geometry" />
        </mxCell>
        <mxCell id="l8vBViZwVbypF5EwimsJ-129" value="" style="shape=hexagon;perimeter=hexagonPerimeter2;whiteSpace=wrap;html=1;fixedSize=1;fontSize=11;" vertex="1" parent="1">
          <mxGeometry x="385" y="580" width="65" height="20" as="geometry" />
        </mxCell>
        <mxCell id="l8vBViZwVbypF5EwimsJ-130" value="Node" style="text;html=1;strokeColor=none;fillColor=none;align=center;verticalAlign=middle;whiteSpace=wrap;rounded=0;fontSize=11;" vertex="1" parent="1">
          <mxGeometry x="387.5" y="580" width="62.5" height="20" as="geometry" />
        </mxCell>
        <mxCell id="l8vBViZwVbypF5EwimsJ-131" value="" style="shape=hexagon;perimeter=hexagonPerimeter2;whiteSpace=wrap;html=1;fixedSize=1;fontSize=11;" vertex="1" parent="1">
          <mxGeometry x="387.5" y="605" width="65" height="20" as="geometry" />
        </mxCell>
        <mxCell id="l8vBViZwVbypF5EwimsJ-132" value="Node" style="text;html=1;strokeColor=none;fillColor=none;align=center;verticalAlign=middle;whiteSpace=wrap;rounded=0;fontSize=11;" vertex="1" parent="1">
          <mxGeometry x="390" y="605" width="62.5" height="20" as="geometry" />
        </mxCell>
        <mxCell id="l8vBViZwVbypF5EwimsJ-133" value="App Chain1" style="text;html=1;strokeColor=none;fillColor=none;align=center;verticalAlign=middle;whiteSpace=wrap;rounded=0;fontSize=11;" vertex="1" parent="1">
          <mxGeometry x="327.5" y="590" width="60" height="30" as="geometry" />
        </mxCell>
        <mxCell id="l8vBViZwVbypF5EwimsJ-134" value="" style="ellipse;whiteSpace=wrap;html=1;fontSize=11;" vertex="1" parent="1">
          <mxGeometry x="550" y="570" width="220" height="70" as="geometry" />
        </mxCell>
        <mxCell id="l8vBViZwVbypF5EwimsJ-135" value="" style="shape=hexagon;perimeter=hexagonPerimeter2;whiteSpace=wrap;html=1;fixedSize=1;fontSize=11;" vertex="1" parent="1">
          <mxGeometry x="685" y="580" width="65" height="20" as="geometry" />
        </mxCell>
        <mxCell id="l8vBViZwVbypF5EwimsJ-136" value="Node" style="text;html=1;strokeColor=none;fillColor=none;align=center;verticalAlign=middle;whiteSpace=wrap;rounded=0;fontSize=11;" vertex="1" parent="1">
          <mxGeometry x="687.5" y="580" width="62.5" height="20" as="geometry" />
        </mxCell>
        <mxCell id="l8vBViZwVbypF5EwimsJ-137" value="" style="shape=hexagon;perimeter=hexagonPerimeter2;whiteSpace=wrap;html=1;fixedSize=1;fontSize=11;" vertex="1" parent="1">
          <mxGeometry x="687.5" y="605" width="65" height="20" as="geometry" />
        </mxCell>
        <mxCell id="l8vBViZwVbypF5EwimsJ-138" value="Node" style="text;html=1;strokeColor=none;fillColor=none;align=center;verticalAlign=middle;whiteSpace=wrap;rounded=0;fontSize=11;" vertex="1" parent="1">
          <mxGeometry x="690" y="605" width="62.5" height="20" as="geometry" />
        </mxCell>
        <mxCell id="l8vBViZwVbypF5EwimsJ-139" value="" style="shape=hexagon;perimeter=hexagonPerimeter2;whiteSpace=wrap;html=1;fixedSize=1;fontSize=11;" vertex="1" parent="1">
          <mxGeometry x="615" y="580" width="65" height="20" as="geometry" />
        </mxCell>
        <mxCell id="l8vBViZwVbypF5EwimsJ-140" value="Node" style="text;html=1;strokeColor=none;fillColor=none;align=center;verticalAlign=middle;whiteSpace=wrap;rounded=0;fontSize=11;" vertex="1" parent="1">
          <mxGeometry x="617.5" y="580" width="62.5" height="20" as="geometry" />
        </mxCell>
        <mxCell id="l8vBViZwVbypF5EwimsJ-141" value="" style="shape=hexagon;perimeter=hexagonPerimeter2;whiteSpace=wrap;html=1;fixedSize=1;fontSize=11;" vertex="1" parent="1">
          <mxGeometry x="617.5" y="605" width="65" height="20" as="geometry" />
        </mxCell>
        <mxCell id="l8vBViZwVbypF5EwimsJ-142" value="Node" style="text;html=1;strokeColor=none;fillColor=none;align=center;verticalAlign=middle;whiteSpace=wrap;rounded=0;fontSize=11;" vertex="1" parent="1">
          <mxGeometry x="620" y="605" width="62.5" height="20" as="geometry" />
        </mxCell>
        <mxCell id="l8vBViZwVbypF5EwimsJ-143" value="App Chain2" style="text;html=1;strokeColor=none;fillColor=none;align=center;verticalAlign=middle;whiteSpace=wrap;rounded=0;fontSize=11;" vertex="1" parent="1">
          <mxGeometry x="557.5" y="590" width="60" height="30" as="geometry" />
        </mxCell>
        <mxCell id="l8vBViZwVbypF5EwimsJ-146" value="" style="shape=parallelogram;perimeter=parallelogramPerimeter;whiteSpace=wrap;html=1;fixedSize=1;fontSize=11;" vertex="1" parent="1">
          <mxGeometry x="512.5" y="390" width="65" height="30" as="geometry" />
        </mxCell>
        <mxCell id="l8vBViZwVbypF5EwimsJ-147" value="Node" style="text;html=1;strokeColor=none;fillColor=none;align=center;verticalAlign=middle;whiteSpace=wrap;rounded=0;fontSize=6;" vertex="1" parent="1">
          <mxGeometry x="512.5" y="390" width="63.5" height="30" as="geometry" />
        </mxCell>
        <mxCell id="l8vBViZwVbypF5EwimsJ-148" value="" style="shape=parallelogram;perimeter=parallelogramPerimeter;whiteSpace=wrap;html=1;fixedSize=1;fontSize=11;" vertex="1" parent="1">
          <mxGeometry x="301.5" y="940" width="65" height="30" as="geometry" />
        </mxCell>
        <mxCell id="l8vBViZwVbypF5EwimsJ-149" value="Node" style="text;html=1;strokeColor=none;fillColor=none;align=center;verticalAlign=middle;whiteSpace=wrap;rounded=0;fontSize=6;" vertex="1" parent="1">
          <mxGeometry x="301.5" y="940" width="63.5" height="30" as="geometry" />
        </mxCell>
        <mxCell id="l8vBViZwVbypF5EwimsJ-150" value="" style="shape=parallelogram;perimeter=parallelogramPerimeter;whiteSpace=wrap;html=1;fixedSize=1;fontSize=11;" vertex="1" parent="1">
          <mxGeometry x="300" y="990" width="65" height="30" as="geometry" />
        </mxCell>
        <mxCell id="l8vBViZwVbypF5EwimsJ-151" value="Node" style="text;html=1;strokeColor=none;fillColor=none;align=center;verticalAlign=middle;whiteSpace=wrap;rounded=0;fontSize=6;" vertex="1" parent="1">
          <mxGeometry x="300" y="990" width="63.5" height="30" as="geometry" />
        </mxCell>
        <mxCell id="l8vBViZwVbypF5EwimsJ-152" value="" style="shape=parallelogram;perimeter=parallelogramPerimeter;whiteSpace=wrap;html=1;fixedSize=1;fontSize=11;" vertex="1" parent="1">
          <mxGeometry x="381" y="940" width="65" height="30" as="geometry" />
        </mxCell>
        <mxCell id="l8vBViZwVbypF5EwimsJ-153" value="Node" style="text;html=1;strokeColor=none;fillColor=none;align=center;verticalAlign=middle;whiteSpace=wrap;rounded=0;fontSize=6;" vertex="1" parent="1">
          <mxGeometry x="381" y="940" width="63.5" height="30" as="geometry" />
        </mxCell>
        <mxCell id="l8vBViZwVbypF5EwimsJ-154" value="" style="shape=parallelogram;perimeter=parallelogramPerimeter;whiteSpace=wrap;html=1;fixedSize=1;fontSize=11;" vertex="1" parent="1">
          <mxGeometry x="375" y="990" width="65" height="30" as="geometry" />
        </mxCell>
        <mxCell id="l8vBViZwVbypF5EwimsJ-155" value="Node" style="text;html=1;strokeColor=none;fillColor=none;align=center;verticalAlign=middle;whiteSpace=wrap;rounded=0;fontSize=6;" vertex="1" parent="1">
          <mxGeometry x="375" y="990" width="63.5" height="30" as="geometry" />
        </mxCell>
        <mxCell id="l8vBViZwVbypF5EwimsJ-156" value="" style="shape=parallelogram;perimeter=parallelogramPerimeter;whiteSpace=wrap;html=1;fixedSize=1;fontSize=11;" vertex="1" parent="1">
          <mxGeometry x="452.5" y="940" width="65" height="30" as="geometry" />
        </mxCell>
        <mxCell id="l8vBViZwVbypF5EwimsJ-157" value="Node" style="text;html=1;strokeColor=none;fillColor=none;align=center;verticalAlign=middle;whiteSpace=wrap;rounded=0;fontSize=6;" vertex="1" parent="1">
          <mxGeometry x="452.5" y="940" width="63.5" height="30" as="geometry" />
        </mxCell>
        <mxCell id="l8vBViZwVbypF5EwimsJ-158" value="" style="shape=parallelogram;perimeter=parallelogramPerimeter;whiteSpace=wrap;html=1;fixedSize=1;fontSize=11;" vertex="1" parent="1">
          <mxGeometry x="447.5" y="990" width="65" height="30" as="geometry" />
        </mxCell>
        <mxCell id="l8vBViZwVbypF5EwimsJ-159" value="Node" style="text;html=1;strokeColor=none;fillColor=none;align=center;verticalAlign=middle;whiteSpace=wrap;rounded=0;fontSize=6;" vertex="1" parent="1">
          <mxGeometry x="447.5" y="990" width="63.5" height="30" as="geometry" />
        </mxCell>
      </root>
    </mxGraphModel>
  </diagram>
</mxfile>
